inDegrees=yes
name=ik_S46_A08_T01
DataType=double
version=3
OpenSimVersion=4.3-2021-08-27-4bc7ad9
endheader
time	pelvis_tilt	pelvis_list	pelvis_rotation	pelvis_tx	pelvis_ty	pelvis_tz	hip_flexion_r	hip_adduction_r	hip_rotation_r	knee_angle_r	knee_angle_r_beta	ankle_angle_r	subtalar_angle_r	mtp_angle_r	hip_flexion_l	hip_adduction_l	hip_rotation_l	knee_angle_l	knee_angle_l_beta	ankle_angle_l	subtalar_angle_l	mtp_angle_l	lumbar_extension	lumbar_bending	lumbar_rotation	arm_flex_r	arm_add_r	arm_rot_r	elbow_flex_r	pro_sup_r	wrist_flex_r	wrist_dev_r	arm_flex_l	arm_add_l	arm_rot_l	elbow_flex_l	pro_sup_l	wrist_flex_l	wrist_dev_l
12.93999999999981	-10.11287267910824	-2.009370205229409	27.18703521312275	0	0.9399999999999999	0	36.09457551059071	-10.39754612289011	-9.738745739816418	45.13969363907559	0.7878362773434099	0	0	0	36.09457551059071	-10.39754612289011	-9.738745739816418	45.13969363907559	0.7878362773434099	0	0	0	-8.643815791390153	-0.699818131553279	1.764170440562771	16.34876170645406	-8.362836135269944	9.654682689095321	61.69408340276493	134.8719839576421	0	0	90.13283566308208	4.230013359747402	11.20791953839612	85.76598703260015	98.50029199757431	0	0
12.95999999999981	-10.1068875943383	-2.009069179450547	27.16864757264797	0	0.9399999999999999	0	36.1096926996665	-10.39545869229437	-9.739670045471533	45.15119895425367	0.7880370829747471	0	0	0	36.1096926996665	-10.39545869229437	-9.739670045471533	45.15119895425367	0.7880370829747471	0	0	0	-8.639623403584658	-0.6992416572985447	1.769607940377195	16.3590792032146	-8.347206925027391	9.693594740515985	61.71094784682602	134.8175858366889	0	0	90.07637014315797	4.288859029489251	11.13948405109675	85.73525165318735	98.48666884890341	0	0
12.97999999999981	-10.10410330586811	-1.999622942771877	27.16927509472196	0	0.9399999999999999	0	36.10857492990764	-10.39538952880213	-9.739650061081479	45.15020445100906	0.7880197256187069	0	0	0	36.10857492990764	-10.39538952880213	-9.739650061081479	45.15020445100906	0.7880197256187069	0	0	0	-8.632148317776043	-0.6950146884878621	1.78523465658599	16.34643997558711	-8.357007369622202	9.66020239740188	61.67090087488724	134.8638561238824	0	0	90.03531019971781	4.337794903881378	11.04424466309106	85.63955138970019	98.45771078144237	0	0
12.99999999999981	-10.09787402013016	-2.003374095455507	27.16177330113823	0	0.9399999999999999	0	36.12012582887121	-10.39349659994106	-9.740424097014666	45.15875107745965	0.7881688923902077	0	0	0	36.12012582887121	-10.39349659994106	-9.740424097014666	45.15875107745965	0.7881688923902077	0	0	0	-8.629358507494548	-0.6982960839091503	1.784880790428091	16.34249698526953	-8.372496334131137	9.653517441109887	61.68405417474666	134.8343239154438	0	0	90.01070230808446	4.339686577977944	10.9779809431402	85.6101091705887	98.40905731263081	0	0
13.01999999999981	-10.09169250115042	-2.011813478263331	27.16743666092533	0	0.9399999999999999	0	36.12412521287174	-10.39282940016529	-9.740693057091713	45.16172418014209	0.7882207828210163	0	0	0	36.12412521287174	-10.39282940016529	-9.740693057091713	45.16172418014209	0.7882207828210163	0	0	0	-8.627972935191286	-0.7077075919442484	1.784384629023311	16.34179163703707	-8.350192495890068	9.66327483092758	61.68470541360241	134.834445886641	0	0	90.00362484580026	4.375229912120885	10.89944516758481	85.6048409062076	98.4115908602454	0	0
13.03999999999981	-10.08436104519399	-2.015407375121673	27.17695127825776	0	0.9399999999999999	0	36.12687306734703	-10.39227198550751	-9.740899771083187	45.16369774675503	0.7882552280564193	0	0	0	36.12687306734703	-10.39227198550751	-9.740899771083187	45.16369774675503	0.7882552280564193	0	0	0	-8.623027522711713	-0.7147375801559434	1.790423874798657	16.33279546607377	-8.334563880059715	9.647334011017231	61.67568471866065	134.8388630556296	0	0	89.98579641475109	4.421422349382209	10.82249059932622	85.57305777206133	98.41471984686795	0	0
13.05999999999981	-10.08066610485979	-2.022059245487426	27.1798711402038	0	0.9399999999999999	0	36.1329573961611	-10.39136811209897	-9.741284847721472	45.16829396506648	0.7883354471990947	0	0	0	36.1329573961611	-10.39136811209897	-9.741284847721472	45.16829396506648	0.7883354471990947	0	0	0	-8.623166291416695	-0.7213995888140651	1.793552422108758	16.32030148279165	-8.337297719631078	9.659529065421435	61.67940876810172	134.8230199440879	0	0	89.97756991950669	4.473902097419952	10.76292073852706	85.54236884403842	98.42779643269371	0	0
13.07999999999981	-10.07409090655885	-2.02053044856343	27.1992638786119	0	0.9399999999999999	0	36.15570311086341	-10.38863568046771	-9.742586339894585	45.1858851186453	0.7886424707482691	-1.616420763446103e-35	0	0	36.15570311086341	-10.38863568046771	-9.742586339894585	45.1858851186453	0.7886424707482691	-1.616420763446103e-35	0	0	-8.618982708218759	-0.7163311863712113	1.790022079053756	16.27925454101558	-8.335394891064416	9.71116293900949	61.71567343700521	134.7350175421763	0	0	89.98065823910403	4.524263681604381	10.70121910075489	85.52051691555009	98.42533457208322	0	0
13.09999999999981	-10.07621505549527	-2.020278130252156	27.20892801064224	0	0.9399999999999999	0	36.16199830273715	-10.38788171939911	-9.742946183465632	45.19076154130038	0.7887275803793191	0	0	0	36.16199830273715	-10.38788171939911	-9.742946183465632	45.19076154130038	0.7887275803793191	0	0	0	-8.621301914710745	-0.7134989032006439	1.790726289393124	16.2635364140496	-8.337767475500428	9.709663870167393	61.70345176419588	134.7861583129825	0	0	89.9889948429322	4.557928733602434	10.68064166063071	85.45538816899732	98.45961444375851	0	0
13.11999999999981	-10.07096854251732	-2.024186751593921	27.21846938699268	0	0.9399999999999999	0	36.20338760248386	-10.38252055740641	-9.745407384347699	45.22240148992175	0.7892798016579238	0	0	0	36.20338760248386	-10.38252055740641	-9.745407384347699	45.22240148992175	0.7892798016579238	0	0	0	-8.622420532296202	-0.707353146191517	1.785726388035871	16.22691042261716	-8.356003500137557	9.746003544630149	61.74791695013997	134.6966998853755	0	0	90.00544649898981	4.568574421721301	10.67444873069689	85.42990540207671	98.39900237795784	0	0
13.13999999999981	-10.07505209569213	-2.025656763037584	27.21458289903322	0	0.9399999999999999	0	36.21992310684392	-10.38060887183283	-9.746338592164266	45.23521710815074	0.7895034763916982	0	0	0	36.21992310684392	-10.38060887183283	-9.746338592164266	45.23521710815074	0.7895034763916982	0	0	0	-8.62800176949909	-0.7049071185636162	1.801193319692341	16.20888257322366	-8.353976756779673	9.748413408141621	61.74745463889293	134.7478818233408	0	0	90.03368279208183	4.622324443550201	10.67377990297127	85.38319428629146	98.31283626135496	0	0
13.15999999999981	-10.07617176307439	-2.029769473360493	27.21163045486338	0	0.9399999999999999	0	36.25383202994763	-10.37617159443102	-9.74836490585448	45.2610804190208	0.7899548763218477	0	0	0	36.25383202994763	-10.37617159443102	-9.74836490585448	45.2610804190208	0.7899548763218477	0	0	0	-8.634119587578452	-0.700188421421106	1.807836404248745	16.18999467241827	-8.354840431119101	9.758015598741586	61.76510189922138	134.7838511506828	0	0	90.07154206622062	4.6579364414666	10.6924546716469	85.3052229117957	98.28253970774905	0	0
13.17999999999981	-10.07718430914069	-2.031786325810752	27.20545123864495	0	0.9399999999999999	0	36.26395489671116	-10.37498606040012	-9.748936532833749	45.26894201360217	0.7900920870317496	0	0	0	36.26395489671116	-10.37498606040012	-9.748936532833749	45.26894201360217	0.7900920870317496	0	0	0	-8.636792729197827	-0.6996455587075161	1.813019976041021	16.16835856930474	-8.347310185612917	9.74599889456398	61.77873278286965	134.780312718283	0	0	90.10111392616795	4.673189307410266	10.69327354898116	85.24998868560786	98.29156479129195	0	0
13.19999999999981	-10.07556088512026	-2.032960352389821	27.19567825860483	0	0.9399999999999999	0	36.26820254230664	-10.37448701412482	-9.749175315680395	45.27226240135575	0.7901500387304924	0	0	0	36.26820254230664	-10.37448701412482	-9.749175315680395	45.27226240135575	0.7901500387304924	0	0	0	-8.635939334686292	-0.7022558842390948	1.824771913317468	16.12101792533719	-8.343869480880414	9.719463828457965	61.79090930086534	134.7942832894737	0	0	90.13495189630004	4.696035371294218	10.68883298699546	85.13355755652545	98.27299200999705	0	0
